<?xml version="1.0" encoding="utf-8"?>
<!-- Generator: Adobe Illustrator 19.0.0, SVG Export Plug-In . SVG Version: 6.00 Build 0)  -->
<svg version="1.1" id="Layer_3" xmlns="http://www.w3.org/2000/svg" xmlns:xlink="http://www.w3.org/1999/xlink" x="0px" y="0px"
	 viewBox="104 144.4 1000 799.9" style="enable-background:new 104 144.4 1000 799.9;" xml:space="preserve">
<style type="text/css">
	.st0{fill:#FFFFFF;}
</style>
<path class="st0" d="M604,512.8c21.1,0,36.8-5.2,52.6-15.8c15.8-10.5,389.5-263.2,415.8-278.9c26.3-15.8,52.6-73.7,0-73.7H135.5
	c-52.6,0-26.3,57.8,0,73.7s400,268.5,415.8,278.9C567.2,507.5,582.9,512.8,604,512.8z"/>
<path class="st0" d="M604,649.5c-15.8,0-31.5,0-52.6-15.8c-15.9-10.5-394.8-257.9-426.3-278.8c-21.1-10.6-21.1,5.2-21.1,15.7
	s0,505.2,0,505.2c0,26.3,31.5,68.5,52.6,68.5h894.8c21.1,0,52.6-42.2,52.6-68.5c0,0,0-494.8,0-505.2s0-26.3-21.1-15.8
	c-31.5,21.1-410.5,268.5-426.3,279.1C635.5,649.5,619.8,649.5,604,649.5z"/>
</svg>
